<svg xmlns="http://www.w3.org/2000/svg" xmlns:xlink="http://www.w3.org/1999/xlink" width="1080" zoomAndPan="magnify" viewBox="0 0 810 809.999993" height="1080" preserveAspectRatio="xMidYMid meet" version="1.0"><defs><clipPath id="438e1064f6"><path d="M 253 296 L 360 296 L 360 381 L 253 381 Z M 253 296 " clip-rule="nonzero"/></clipPath><clipPath id="f9f9d9a853"><path d="M 244.84375 303.703125 L 357.300781 290.320312 L 366.429688 367.027344 L 253.972656 380.410156 Z M 244.84375 303.703125 " clip-rule="nonzero"/></clipPath><clipPath id="6ffd8a2d29"><path d="M 244.84375 303.703125 L 357.300781 290.320312 L 366.429688 367.027344 L 253.972656 380.410156 Z M 244.84375 303.703125 " clip-rule="nonzero"/></clipPath><clipPath id="8c2cea148e"><path d="M 39 133 L 688 133 L 688 687 L 39 687 Z M 39 133 " clip-rule="nonzero"/></clipPath><clipPath id="6c8777ee1e"><path d="M 51.703125 109.527344 L 703.683594 135.585938 L 681.101562 700.632812 L 29.121094 674.578125 Z M 51.703125 109.527344 " clip-rule="nonzero"/></clipPath><clipPath id="358718c0ac"><path d="M 703.800781 135.589844 L 51.820312 109.53125 L 29.238281 674.582031 L 681.21875 700.636719 Z M 703.800781 135.589844 " clip-rule="nonzero"/></clipPath></defs><g clip-path="url(#438e1064f6)"><g clip-path="url(#f9f9d9a853)"><g clip-path="url(#6ffd8a2d29)"><path fill="#ff66c4" d="M 350.75 301.980469 C 344.070312 301.117188 338.097656 307.664062 334.429688 312.390625 C 331.40625 316.324219 328.640625 320.488281 326.210938 324.808594 L 322.195312 314.160156 C 320.742188 310.359375 319.5 306.386719 317.3125 302.902344 C 315.722656 300.371094 313.507812 297.863281 310.472656 297.109375 C 307.171875 296.300781 303.765625 297.960938 301.199219 299.925781 C 286.847656 310.816406 297.59375 333.105469 306.433594 343.921875 C 308.773438 346.761719 311.296875 349.464844 314 352.003906 C 312.441406 352.359375 310.878906 352.6875 309.34375 353.015625 C 297.632812 355.523438 285.832031 357.785156 275.027344 363.132812 C 267.003906 367.121094 259.238281 372.734375 253.929688 380.058594 C 256.1875 379.074219 258.449219 378.148438 260.285156 376.5 C 260.363281 376.433594 260.441406 376.367188 260.523438 376.328125 C 266.167969 369.679688 274.320312 365.621094 282.898438 362.941406 C 294.0625 359.4375 305.753906 357.933594 317.019531 354.789062 C 321.308594 358.597656 325.878906 362.171875 330.390625 365.699219 C 331.902344 366.863281 337.160156 361.773438 336.429688 361.175781 C 332.769531 358.292969 328.953125 355.316406 325.226562 352.125 C 325.527344 352.003906 325.832031 351.910156 326.132812 351.789062 C 336.871094 347.59375 347.332031 340.542969 353.878906 330.898438 C 357.066406 326.199219 359.375 320.605469 359.519531 314.867188 C 359.632812 309.332031 356.964844 302.757812 350.75 301.980469 Z M 302.921875 301.210938 L 302.503906 301.515625 C 302.648438 301.300781 302.773438 301.167969 302.921875 301.210938 Z M 351.457031 327.640625 C 349.53125 332.359375 346.484375 336.554688 342.589844 339.878906 C 336.855469 344.792969 329.855469 347.742188 322.585938 349.867188 C 311.628906 340.015625 302.117188 328.332031 300.675781 313.316406 C 300.4375 311.316406 300.453125 309.28125 300.695312 307.25 C 300.753906 306.789062 301.597656 303.285156 302.3125 301.855469 C 302.761719 301.773438 303.210938 301.71875 303.671875 301.75 C 304.679688 301.800781 305.683594 302.054688 306.570312 302.546875 C 308.035156 303.316406 309.214844 304.578125 310.230469 305.886719 C 312.902344 309.347656 314.261719 313.589844 315.777344 317.640625 C 317.820312 323.03125 319.863281 328.425781 321.90625 333.816406 C 322.40625 335.15625 327.488281 330.75 327.832031 330.023438 C 330.574219 323.976562 333.894531 318.230469 337.742188 312.855469 C 339.269531 310.785156 341.128906 307.160156 343.859375 306.804688 C 346.675781 306.441406 349.375 308.210938 351.007812 310.390625 C 354.667969 315.1875 353.574219 322.351562 351.457031 327.640625 Z M 351.457031 327.640625 " fill-opacity="1" fill-rule="nonzero"/></g></g></g><g clip-path="url(#8c2cea148e)"><g clip-path="url(#6c8777ee1e)"><g clip-path="url(#358718c0ac)"><path fill="#ff5757" d="M 48.449219 515.417969 C 54.566406 521.152344 61.039062 526.503906 67.625 531.683594 C 83.734375 543.875 99.421875 557.132812 117.898438 566 C 151.597656 581.667969 190.945312 582.664062 226.507812 573.03125 C 234.730469 442.523438 372.394531 458.339844 426.285156 331.5625 C 426.535156 331.207031 426.71875 330.828125 426.851562 330.429688 C 422.144531 321.816406 419.265625 311.960938 418.515625 301.703125 C 414.082031 265.164062 416.648438 226.203125 433.214844 192.824219 C 444.125 171.664062 460.476562 151.835938 481.472656 140.171875 C 507.355469 127.707031 537.894531 135.359375 563.300781 145.511719 C 581.867188 154.617188 595.027344 173.171875 615.980469 177.75 C 623.246094 179.789062 630.492188 179.625 637.746094 179.449219 C 645.578125 179.269531 653.425781 179.085938 661.394531 181.679688 C 685.949219 190.050781 692.71875 220.867188 682.792969 242.773438 C 675.632812 259.65625 663.707031 274.425781 650.433594 286.929688 C 624.316406 310.671875 586.082031 319.359375 549.777344 320.566406 C 555.382812 328.03125 560.519531 335.890625 564.917969 344.117188 C 582.355469 376.4375 587.925781 413.984375 584.722656 450.320312 C 583.867188 490.792969 576.148438 547.316406 594.054688 584.0625 C 606.171875 601.328125 630.070312 600.632812 648.054688 607.917969 C 675.011719 615.136719 683.261719 648.507812 659.628906 665.035156 C 643.5625 676.84375 622.996094 675.46875 604.167969 673.015625 C 565.613281 668.378906 531.75 645.972656 505.265625 618.527344 C 489.464844 640.238281 467.171875 657.304688 443.316406 669.296875 C 442.730469 669.558594 442.113281 669.664062 441.5 669.640625 C 439.613281 669.5625 437.777344 668.265625 437.117188 666.488281 C 435.632812 662.324219 439.363281 660.554688 442.492188 658.730469 C 446.480469 656.191406 450.894531 653.0625 455.214844 649.875 C 470.855469 638.433594 486.160156 625.933594 496.859375 609.546875 C 475.296875 584.695312 459.417969 553.375 457.484375 520.15625 C 455.308594 493.425781 474.507812 450.046875 506.851562 468.734375 C 522.960938 479.070312 529.195312 498.824219 532.214844 516.773438 C 537.644531 547.71875 530.328125 580.546875 513.113281 606.738281 C 544.933594 641.425781 592.457031 667.800781 640.617188 658.917969 C 654.691406 655.917969 666.738281 639.785156 654.738281 627.546875 C 644.96875 619.382812 631.414062 618.257812 619.605469 614.601562 C 583.519531 607.109375 573.339844 583.945312 569.777344 549.902344 C 563.425781 498.972656 575.507812 447.605469 568.464844 396.851562 C 565.304688 376.738281 558.5 357.160156 547.691406 339.855469 C 545.484375 334.191406 535.675781 326.957031 537.507812 320.699219 C 530.6875 320.625 523.996094 320.308594 517.539062 319.804688 C 510.753906 339.882812 495.242188 361 471.929688 360.40625 C 455.226562 359.085938 441.683594 350.820312 432.390625 338.839844 C 429.808594 346.507812 424.984375 353.890625 421.742188 360.832031 C 371.101562 462.972656 245.542969 457.015625 238.128906 569.570312 C 273.65625 558.359375 307.03125 540.082031 343.707031 532.757812 C 359.8125 531.652344 377.074219 533.457031 390.726562 542.726562 C 407.082031 552.953125 423.464844 567.375 424.949219 587.875 C 427.914062 603.003906 423.097656 618.191406 417.613281 632.191406 C 405.066406 663.523438 373.90625 687.011719 339.660156 686.734375 C 338.324219 686.75 337 686.726562 335.664062 686.671875 C 316.175781 685.894531 297.578125 678.070312 280.898438 668.3125 C 250.953125 651.5625 228.523438 621.066406 226.554688 586.226562 C 190.542969 595.019531 151.296875 593.175781 117.082031 578.4375 C 88.941406 565.019531 64.59375 544.476562 41.113281 524.222656 C 35.308594 519.503906 42.945312 510.570312 48.488281 515.421875 Z M 518.25 519.042969 C 515.285156 503.84375 510.671875 482.753906 493.40625 478.445312 C 478.933594 478.101562 474.195312 496.457031 472.425781 508.007812 C 469.488281 540.433594 483.59375 572.804688 504.398438 597.121094 C 516.789062 573.367188 522.4375 545.644531 518.25 519.035156 Z M 430.375 274.765625 C 431.347656 304.828125 434.683594 338.910156 469.84375 346.199219 C 502.667969 346.503906 508.242188 303.234375 513.832031 278.484375 C 515.917969 271.734375 513.503906 257.734375 523.59375 258.136719 C 523.75 258.144531 523.910156 258.148438 524.066406 258.15625 C 534.675781 260.667969 526.621094 277.375 526.535156 284.964844 C 524.742188 294.507812 522.582031 304.003906 519.707031 313.285156 C 559.722656 313.203125 606.136719 308.679688 638.550781 283.09375 C 656.683594 266.621094 675.828125 245.152344 676.382812 219.394531 C 676.226562 207.222656 668.570312 194.398438 656.191406 191.589844 C 649.679688 190.480469 643.039062 190.609375 636.398438 190.730469 C 626.765625 190.90625 617.136719 191.085938 607.90625 187.515625 C 589.703125 182.179688 576.796875 167.628906 560.851562 158.269531 C 540.652344 149.007812 516.453125 143.332031 494.59375 149.578125 C 477.726562 155.449219 466.132812 169.585938 454.890625 182.941406 C 435.738281 209.332031 429.285156 242.640625 430.375 274.753906 Z M 330.179688 671.726562 C 358.648438 675.058594 387.039062 659.007812 400.039062 633.664062 C 407.828125 618.203125 413.492188 600.363281 408.574219 583.164062 C 405.011719 571.5625 395.300781 563.667969 385.898438 556.703125 C 376.894531 549.621094 365.636719 546.460938 354.3125 546.007812 C 350.640625 545.859375 346.964844 546 343.347656 546.378906 C 306.941406 554.4375 273.472656 572.308594 237.835938 583.097656 C 239.976562 631.480469 285.074219 665.277344 330.179688 671.726562 Z M 330.179688 671.726562 " fill-opacity="1" fill-rule="nonzero"/></g></g></g></svg>